<svg xmlns="http://www.w3.org/2000/svg" width="32" height="32" viewBox="0 0 32 32">
  <defs>
    <style>
      .cls-1 {
        fill: #95e1d3;
        fill-rule: evenodd;
      }
    </style>
  </defs>
  <path id="BOOK_2" data-name="BOOK 2" class="cls-1" d="M31.065,25.889L16.594,31.877a1.5,1.5,0,0,1-1.187,0L0.935,25.889A1.5,1.5,0,0,1,0,24.5V1.5A1.5,1.5,0,0,1,2.073.114h0L2.089,0.12,16,5.877,29.911,0.12l0.013-.005h0A1.5,1.5,0,0,1,32,1.5v23A1.5,1.5,0,0,1,31.065,25.889ZM14.5,8.5L3,3.744V23.5l11.5,4.759V8.5ZM29,3.744L17.5,8.5V28.256L29,23.5V3.744Zm-9.121,6.89,5.5-2.5h0a1.5,1.5,0,1,1,1.241,2.731h0l-5.5,2.5h0A1.5,1.5,0,1,1,19.879,10.634Zm0,5.5h0l5.5-2.5h0a1.5,1.5,0,1,1,1.241,2.731l-5.5,2.5h0A1.5,1.5,0,1,1,19.879,16.135Zm0,5.5h0l5.5-2.5h0a1.5,1.5,0,1,1,1.241,2.731h0l-5.5,2.5h0A1.5,1.5,0,1,1,19.879,21.634ZM6,8a1.489,1.489,0,0,1,.621.135h0l5.5,2.5h0a1.5,1.5,0,1,1-1.241,2.731h0l-5.5-2.5h0A1.5,1.5,0,0,1,6,8Zm0,5.5a1.5,1.5,0,0,1,.621.134h0l5.5,2.5h0a1.5,1.5,0,1,1-1.241,2.73h0l-5.5-2.5h0A1.5,1.5,0,0,1,6,13.5ZM6,19a1.488,1.488,0,0,1,.621.135h0l5.5,2.5h0a1.5,1.5,0,1,1-1.241,2.731h0l-5.5-2.5h0A1.5,1.5,0,0,1,6,19Z"/>
</svg>
