<svg xmlns="http://www.w3.org/2000/svg" width="32" height="31" viewBox="0 0 32 31">
  <defs>
    <style>
      .cls-1 {
        fill: #95e1d3;
        fill-rule: evenodd;
      }
    </style>
  </defs>
  <path id="ALARM" class="cls-1" d="M30.74,9.5A15.719,15.719,0,0,0,22.5,1.26,5.869,5.869,0,0,1,30.74,9.5ZM30.5,16a14.436,14.436,0,0,1-3.962,9.94l2.028,2.028a1.483,1.483,0,1,1-2.1,2.1L24.29,27.887a14.457,14.457,0,0,1-16.566.01L5.561,30.061a1.5,1.5,0,0,1-2.121-2.121l2.012-2.012A14.494,14.494,0,1,1,30.5,16ZM16,4.5A11.5,11.5,0,1,0,27.5,16,11.5,11.5,0,0,0,16,4.5Zm6,13H16A1.5,1.5,0,0,1,14.5,16V8a1.5,1.5,0,0,1,3,0v6.5H22A1.5,1.5,0,0,1,22,17.5ZM1.287,9.705A5.994,5.994,0,0,1,9.706,1.287,16.055,16.055,0,0,0,1.287,9.705Z"/>
</svg>
