<svg xmlns="http://www.w3.org/2000/svg" width="32" height="28" viewBox="0 0 32 28">
  <defs>
    <style>
      .cls-1 {
        fill: #95e1d3;
        fill-rule: evenodd;
      }
    </style>
  </defs>
  <path id="COMPUTER_OK" data-name="COMPUTER / OK" class="cls-1" d="M30,23H20.5v2.5l2,2V28H9.5V27.5l2-2V23H2A1.5,1.5,0,0,1,.5,21.5V1.5A1.5,1.5,0,0,1,2,0H30a1.5,1.5,0,0,1,1.5,1.5v20A1.5,1.5,0,0,1,30,23ZM29.5,2H2.5V19h27V2ZM13,9a1.5,1.5,0,0,1,1.061.439h0L15,10.378l2.939-2.939h0a1.5,1.5,0,1,1,2.121,2.121h0l-4,4h0a1.5,1.5,0,0,1-2.121,0h0l-2-2h0A1.5,1.5,0,0,1,13,9Z"/>
</svg>
