<svg xmlns="http://www.w3.org/2000/svg" width="16" height="16" viewBox="0 0 16 16">
  <defs>
    <style>
      .cls-1 {
        fill: #95e1d3;
        fill-rule: evenodd;
      }
    </style>
  </defs>
  <path id="dribbble" class="cls-1" d="M15.838,6.4A8,8,0,0,0,0,8.014,8.058,8.058,0,0,0,.162,9.626a7.971,7.971,0,0,0,1.2,2.863,8.009,8.009,0,0,0,2.16,2.159,8,8,0,0,0,10.131-.976,8.077,8.077,0,0,0,.976-1.184A8.015,8.015,0,0,0,15.838,6.4ZM14.83,7.947a15.819,15.819,0,0,0-4.759-.224c-0.048-.117-0.1-0.234-0.147-0.353C9.782,7.036,9.629,6.7,9.47,6.379a8.789,8.789,0,0,0,3.807-2.7A6.8,6.8,0,0,1,14.83,7.947ZM12.513,2.888A7.44,7.44,0,0,1,8.944,5.361,34.609,34.609,0,0,0,6.39,1.375,6.82,6.82,0,0,1,12.513,2.888ZM6.364,1.381h0l-0.02,0Zm-1.279.455A41.14,41.14,0,0,1,7.622,5.772a25.247,25.247,0,0,1-6.308.834A6.842,6.842,0,0,1,5.085,1.836ZM1.168,8.014c0-.073,0-0.144.006-0.216a25.052,25.052,0,0,0,7.014-.973c0.2,0.383.383,0.772,0.554,1.16-0.09.026-.18,0.053-0.269,0.082a10.808,10.808,0,0,0-5.557,4.509,0.007,0.007,0,0,1,0,0A6.811,6.811,0,0,1,1.168,8.014ZM8,14.847a6.8,6.8,0,0,1-4.352-1.566C3.738,13.354,3.8,13.4,3.8,13.4A9.255,9.255,0,0,1,9.163,9.133l0.045-.014a28.416,28.416,0,0,1,1.46,5.188A6.807,6.807,0,0,1,8,14.847Zm3.817-1.165a29.506,29.506,0,0,0-1.33-4.88,9.9,9.9,0,0,1,4.258.3A6.836,6.836,0,0,1,11.818,13.682Z"/>
</svg>
