<svg xmlns="http://www.w3.org/2000/svg" width="28" height="32" viewBox="0 0 28 32">
  <defs>
    <style>
      .cls-1 {
        fill: #95e1d3;
        fill-rule: evenodd;
      }
    </style>
  </defs>
  <path id="EQUALIZER" class="cls-1" d="M26.5,16.5h-3A1.5,1.5,0,0,1,22,15V9a1.5,1.5,0,0,1,1.5-1.5h3A1.5,1.5,0,0,1,28,9v6A1.5,1.5,0,0,1,26.5,16.5Zm-3-15a1.5,1.5,0,0,1,3,0V6h-3V1.5Zm-8,23h-3A1.5,1.5,0,0,1,11,23V17a1.5,1.5,0,0,1,1.5-1.5h3A1.5,1.5,0,0,1,17,17v6A1.5,1.5,0,0,1,15.5,24.5Zm-3-23a1.5,1.5,0,0,1,3,0V14h-3V1.5Zm-8,19h-3A1.5,1.5,0,0,1,0,19V13a1.5,1.5,0,0,1,1.5-1.5h3A1.5,1.5,0,0,1,6,13v6A1.5,1.5,0,0,1,4.5,20.5Zm-3-19a1.5,1.5,0,0,1,3,0V10h-3V1.5Zm3,29a1.5,1.5,0,1,1-3,0V22h3v8.5Zm11,0a1.5,1.5,0,1,1-3,0V26h3v4.5Zm11,0a1.5,1.5,0,1,1-3,0V18h3V30.5Z"/>
</svg>
