<svg xmlns="http://www.w3.org/2000/svg" width="20" height="12" viewBox="0 0 20 12">
  <defs>
    <style>
      .cls-1 {
        fill: #95e1d3;
        fill-rule: evenodd;
      }
    </style>
  </defs>
  <path id="VIEW" class="cls-1" d="M19.71,5.776c0,0.008,0,.017,0,0.024V5.813c0,0.006,0,.012,0,0.017l0,0.021v0a0.752,0.752,0,0,1-.2.409c-0.2.247-.427,0.479-0.651,0.707a16.8,16.8,0,0,1-4.123,3.123,11.017,11.017,0,0,1-3.089,1.116,8.967,8.967,0,0,1-3.55-.05A13.4,13.4,0,0,1,2.582,8.3,14.956,14.956,0,0,1,.474,6.263a0.776,0.776,0,0,1,0-1.048c0.2-.247.427-0.48,0.651-0.708A16.809,16.809,0,0,1,5.248,1.385,11.011,11.011,0,0,1,8.337.269a8.978,8.978,0,0,1,3.55.051,13.394,13.394,0,0,1,5.5,2.863A14.933,14.933,0,0,1,19.5,5.215a0.751,0.751,0,0,1,.2.409s0,0,0,0,0,0.014,0,.02,0,0.012,0,.018V5.677c0,0.008,0,.016,0,0.024s0,0.024,0,.037S19.71,5.764,19.71,5.776ZM9.991,1.942a3.645,3.645,0,1,0,3.645,3.645A3.645,3.645,0,0,0,9.991,1.942Zm0,5.467a1.822,1.822,0,1,1,1.822-1.822A1.822,1.822,0,0,1,9.991,7.409Z"/>
</svg>
