<svg xmlns="http://www.w3.org/2000/svg" width="16" height="15" viewBox="0 0 16 15">
  <defs>
    <style>
      .cls-1 {
        fill: #95e1d3;
        fill-rule: evenodd;
      }
    </style>
  </defs>
  <path id="google_plus" data-name="google plus" class="cls-1" d="M13.5,3.717v2.44h-1V3.717H10v-1h2.5V0.279h1v2.44H16v1H13.5ZM6.585,1.246A2.56,2.56,0,0,1,7.993,3.577a2.709,2.709,0,0,1-1.239,2.1,1.361,1.361,0,0,0-.81,1.186A2.716,2.716,0,0,0,7.055,8.154,2.849,2.849,0,0,1,8.5,10.847c0,1.5-1.444,3.169-4.116,3.169C2.039,14.016,0,12.9,0,11.4c0-1.52,1.866-2.987,4.209-2.987,0.255,0,.489-0.011.731-0.011A1.611,1.611,0,0,1,4.367,7.25,1.716,1.716,0,0,1,4.58,6.465c-0.127.009-.257-0.012-0.391-0.012A3.061,3.061,0,0,1,.975,3.4c0-1.631,1.781-3.132,3.673-3.132h4.22l-0.944.983H6.585ZM4.656,8.8c-1.62-.017-3.071.97-3.071,2.156,0,1.209,1.17,2.094,2.79,2.094,2.277,0,3.071-.822,3.071-2.032a1.833,1.833,0,0,0-.052-0.428C7.215,9.9,6.585,9.565,5.705,8.965A3.6,3.6,0,0,0,4.656,8.8Zm1.82-5.2A2.819,2.819,0,0,0,4.12,1.037C3.033,1.005,2.3,2.078,2.492,3.48A2.821,2.821,0,0,0,4.8,6.077C5.887,6.109,6.663,5,6.476,3.6Z"/>
</svg>
