<svg xmlns="http://www.w3.org/2000/svg" width="32" height="31" viewBox="0 0 32 31">
  <defs>
    <style>
      .cls-1 {
        fill: #95e1d3;
        fill-rule: evenodd;
      }
    </style>
  </defs>
  <path id="HOME" class="cls-1" d="M32,16.5a1.5,1.5,0,0,1-2.52,1.094l0,0L16.038,4.159h0L16,4.122h0L2.554,17.569h0A1.5,1.5,0,1,1,.461,15.419L14.919,0.96A1.5,1.5,0,0,1,16,.5h0l0.079,0h0.012L16.16,0.509h0A1.5,1.5,0,0,1,17.1.977h0l5.9,5.9V5.5a1.5,1.5,0,1,1,3,0V9.878l5.6,5.6,0,0A1.49,1.49,0,0,1,32,16.5ZM29,19V29.5A1.5,1.5,0,0,1,27.5,31h-3V19h-6V31H4.5A1.5,1.5,0,0,1,3,29.5V19L16,6ZM13.5,19h-6v6h6V19Z"/>
</svg>
