<svg xmlns="http://www.w3.org/2000/svg" width="16" height="16" viewBox="0 0 16 16">
  <defs>
    <style>
      .cls-1 {
        fill: #95e1d3;
        fill-rule: evenodd;
      }
    </style>
  </defs>
  <path id="instagram" class="cls-1" d="M14,16.015H2a2,2,0,0,1-2-2v-12a2,2,0,0,1,2-2H14a2,2,0,0,1,2,2v12A2,2,0,0,1,14,16.015ZM8,4.915a3.1,3.1,0,0,0-2.811,1.8h0c-0.005.011-.009,0.023-0.014,0.035-0.029.065-.055,0.133-0.08,0.2-0.012.032-.025,0.064-0.036,0.1C5.033,7.117,5.014,7.188,5,7.26c-0.008.033-.018,0.066-0.026,0.1-0.016.076-.028,0.153-0.038,0.23,0,0.031-.011.062-0.014,0.094a3.139,3.139,0,0,0-.018.331,3.1,3.1,0,1,0,6.182-.331c0-.032-0.01-0.063-0.014-0.094-0.011-.077-0.022-0.154-0.038-0.23C11.022,7.326,11.012,7.293,11,7.26c-0.018-.072-0.037-0.142-0.059-0.212-0.011-.033-0.024-0.065-0.036-0.1-0.025-.068-0.051-0.136-0.081-0.2,0-.011-0.008-0.023-0.014-0.035h0A3.1,3.1,0,0,0,8,4.915Zm6.2-2.3a0.8,0.8,0,0,0-.8-0.8H11.8a0.8,0.8,0,0,0-.8.8v1.6a0.8,0.8,0,0,0,.8.8h1.6a0.8,0.8,0,0,0,.8-0.8v-1.6Zm0,4.1H12.725a4.9,4.9,0,1,1-9.451,0H1.8v6.7a0.8,0.8,0,0,0,.8.8H13.4a0.8,0.8,0,0,0,.8-0.8v-6.7Z"/>
</svg>
