<svg xmlns="http://www.w3.org/2000/svg" width="32" height="32" viewBox="0 0 32 32">
  <defs>
    <style>
      .cls-1 {
        fill: #95e1d3;
        fill-rule: evenodd;
      }
    </style>
  </defs>
  <path id="LINE_GRAPH" data-name="LINE GRAPH" class="cls-1" d="M30.5,32H1.5A1.5,1.5,0,0,1,0,30.5V1.5A1.5,1.5,0,0,1,1.5,0h29A1.5,1.5,0,0,1,32,1.5v29A1.5,1.5,0,0,1,30.5,32ZM29,3H3V29H29V3ZM5.215,16.239h0l4-2.5h0a1.5,1.5,0,0,1,1.625.036l0.006-.009,6.631,4.42,7.638-5.391a1.5,1.5,0,1,1,1.764,2.426h0l-8.5,6h0a1.5,1.5,0,0,1-1.74.012L9.982,16.8l-3.136,1.96A1.5,1.5,0,1,1,5.215,16.239Z"/>
</svg>
