<svg xmlns="http://www.w3.org/2000/svg" width="30" height="30" viewBox="0 0 30 30">
  <defs>
    <style>
      .cls-1 {
        fill: #95e1d3;
        fill-rule: evenodd;
      }
    </style>
  </defs>
  <path id="PICTURE" class="cls-1" d="M30,24a1.5,1.5,0,0,1-1,1.407v1.683A1.5,1.5,0,1,1,27.092,29H25.408a1.491,1.491,0,0,1-2.816,0H20.908a1.491,1.491,0,0,1-2.816,0H16.408a1.491,1.491,0,0,1-2.816,0H11.908a1.491,1.491,0,0,1-2.816,0H7.408a1.491,1.491,0,0,1-2.816,0H2.908A1.5,1.5,0,1,1,1,27.089V25.406A1.491,1.491,0,0,1,1,22.59V20.907A1.492,1.492,0,0,1,1,18.09V16.406a1.492,1.492,0,0,1,0-2.817V11.906A1.491,1.491,0,0,1,1,9.091V7.406A1.491,1.491,0,0,1,1,4.59V2.905A1.5,1.5,0,1,1,2.908,1H4.592A1.491,1.491,0,0,1,7.408,1H9.092a1.491,1.491,0,0,1,2.816,0h1.684a1.491,1.491,0,0,1,2.816,0h1.684a1.491,1.491,0,0,1,2.816,0h1.684a1.491,1.491,0,0,1,2.816,0h1.684A1.5,1.5,0,1,1,29,2.905V4.59a1.491,1.491,0,0,1,0,2.816V9.091a1.491,1.491,0,0,1,0,2.815v1.683a1.492,1.492,0,0,1,0,2.817V18.09a1.492,1.492,0,0,1,0,2.817V22.59A1.5,1.5,0,0,1,30,24ZM26,4H4V26H26V4ZM13,20l7-8.5,4.5,7v6H5.5l6-6Zm-3-7a3,3,0,1,1,3-3A3,3,0,0,1,10,13Z"/>
</svg>
