<svg xmlns="http://www.w3.org/2000/svg" width="13" height="17" viewBox="0 0 13 17">
  <defs>
    <style>
      .cls-1 {
        fill: #95e1d3;
        fill-rule: evenodd;
      }
    </style>
  </defs>
  <path id="pinterest" class="cls-1" d="M5.844,10.424c-0.131.521-.262,1.066-0.4,1.6A12.187,12.187,0,0,1,5,13.567a7.9,7.9,0,0,1-1.277,2.2c-0.359.417-.283,0.25-0.391,0.228-0.083-.017-0.09-0.1-0.106-0.215a12.059,12.059,0,0,1,0-2.087,11.294,11.294,0,0,1,.368-2.17c0.3-1.29.592-2.554,0.9-3.852a0.863,0.863,0,0,0,.056-0.278,4.014,4.014,0,0,1-.268-1.063,3.381,3.381,0,0,1,.087-1.215A2,2,0,0,1,5.552,3.656a1.357,1.357,0,0,1,1.084.082,1.177,1.177,0,0,1,.542.778A2.806,2.806,0,0,1,7.128,5.7c-0.167.761-.386,1.333-0.586,2.068A2.275,2.275,0,0,0,6.424,8.9a1.316,1.316,0,0,0,.53.8,1.546,1.546,0,0,0,1.015.285A2.221,2.221,0,0,0,9.626,9a5.794,5.794,0,0,0,1.047-2.929,7.206,7.206,0,0,0,.043-1.259,3.426,3.426,0,0,0-.7-1.948A3.3,3.3,0,0,0,8.442,1.8,5.2,5.2,0,0,0,6.1,1.651,4.148,4.148,0,0,0,3.028,3.858,4.427,4.427,0,0,0,2.5,5.989a2.765,2.765,0,0,0,.424,1.562c0.083,0.126.205,0.229,0.287,0.374a1.08,1.08,0,0,1-.075.727c-0.069.266-.076,0.633-0.386,0.639a0.94,0.94,0,0,1-.4-0.152A3.2,3.2,0,0,1,.842,6.806a5.587,5.587,0,0,1,0-2.025A5.757,5.757,0,0,1,3.589.942,6.529,6.529,0,0,1,6.031.1c0.318-.046.646-0.066,1-0.083a6.027,6.027,0,0,1,2.7.507A5.533,5.533,0,0,1,11.6,1.865a5.077,5.077,0,0,1,1.146,2.069A4.98,4.98,0,0,1,13,5.364a8.578,8.578,0,0,1-.192,1.48,5.83,5.83,0,0,1-2.4,4.036,4.141,4.141,0,0,1-1.1.506,4.007,4.007,0,0,1-1.4.176,2.88,2.88,0,0,1-1.24-.36A2.054,2.054,0,0,1,5.844,10.424Z"/>
</svg>
