<svg xmlns="http://www.w3.org/2000/svg" width="63" height="61" viewBox="0 0 63 61">
  <defs>
    <style>
      .cls-1 {
        fill: #95e1d3;
        fill-rule: evenodd;
      }
    </style>
  </defs>
  <path id="SPEECH_4" data-name="SPEECH 4" class="cls-1" d="M60,36H58v5h0a3.018,3.018,0,0,1-.061.6,2.941,2.941,0,0,1-.122.393c-0.02.057-.03,0.117-0.053,0.17a2.949,2.949,0,0,1-.177.327c-0.035.06-.061,0.126-0.1,0.184a3.083,3.083,0,0,1-.333.4c-0.012.013-.021,0.029-0.033,0.04a2.982,2.982,0,0,1-2.084.876c-0.013,0-.024,0-0.037,0h0a2.985,2.985,0,0,1-2.121-.879L45.757,36H18a3,3,0,0,1-3-3V3a3,3,0,0,1,3-3H60a3,3,0,0,1,3,3V33A3,3,0,0,1,60,36ZM44.515,39l6.327,6.326,0.008-.008A5.968,5.968,0,0,0,55,47v2a3,3,0,0,1-3,3H20.243L12.121,60.12A2.993,2.993,0,0,1,10,61h0c-0.013,0-.024,0-0.037,0a2.994,2.994,0,0,1-2.084-.875c-0.012-.013-0.021-0.029-0.033-0.041a2.926,2.926,0,0,1-.333-0.4c-0.039-.057-0.065-0.122-0.1-0.183a3.077,3.077,0,0,1-.177-0.325C7.213,59.112,7.2,59.052,7.183,59A2.942,2.942,0,0,1,7.061,58.6,3,3,0,0,1,7,58H7V52H3a3,3,0,0,1-3-3V15H0a3,3,0,0,1,3-3h9V33a6,6,0,0,0,6,6H44.515Z"/>
</svg>
