<svg xmlns="http://www.w3.org/2000/svg" width="17" height="15" viewBox="0 0 17 15">
  <defs>
    <style>
      .cls-1 {
        fill: #95e1d3;
        fill-rule: evenodd;
      }
    </style>
  </defs>
  <path id="SPEECH_BUBBLE_2" data-name="SPEECH BUBBLE 2" class="cls-1" d="M9.416,12.358a11.694,11.694,0,0,1-1.676-.244A6.373,6.373,0,0,1,2.093,14.34c2.441-1.155,2.392-3.069,1.958-3.324A5.611,5.611,0,0,1,.982,6.255c0-3.391,3.727-6.14,8.435-6.14s7.577,2.749,7.577,6.14S14.124,12.358,9.416,12.358ZM5.242,4.875a1.5,1.5,0,1,0,1.5,1.5A1.5,1.5,0,0,0,5.242,4.875Zm3.75,0a1.5,1.5,0,1,0,1.5,1.5A1.5,1.5,0,0,0,8.992,4.875Zm3.75,0a1.5,1.5,0,1,0,1.5,1.5A1.5,1.5,0,0,0,12.742,4.875Z"/>
</svg>
