<svg xmlns="http://www.w3.org/2000/svg" width="10" height="17" viewBox="0 0 10 17">
  <defs>
    <style>
      .cls-1 {
        fill: #95e1d3;
        fill-rule: evenodd;
      }
    </style>
  </defs>
  <path id="tumblr" class="cls-1" d="M10.009,15.145a9.551,9.551,0,0,1-1.849.678,7.8,7.8,0,0,1-1.79.195,4.87,4.87,0,0,1-1.717-.276,4.173,4.173,0,0,1-1.431-.79A2.881,2.881,0,0,1,2.4,13.86a4.76,4.76,0,0,1-.229-1.677V6.569H0.007V4.3a5.616,5.616,0,0,0,1.8-.879A4.366,4.366,0,0,0,2.878,2.048,6.2,6.2,0,0,0,3.436.008H5.7v3.7H9.383V6.569H5.7v4.1A7.019,7.019,0,0,0,5.787,12.4a1.476,1.476,0,0,0,.607.691,2.3,2.3,0,0,0,1.209.319,4.339,4.339,0,0,0,2.406-.79v2.525Z"/>
</svg>
