<svg xmlns="http://www.w3.org/2000/svg" width="16" height="14" viewBox="0 0 16 14">
  <defs>
    <style>
      .cls-1 {
        fill: #95e1d3;
        fill-rule: evenodd;
      }
    </style>
  </defs>
  <path id="twitter" class="cls-1" d="M10.883,0.516a3.376,3.376,0,0,1,2.595,1.03A5.317,5.317,0,0,0,15.159.979l0.408-.224A3.281,3.281,0,0,1,14.5,2.3a1.552,1.552,0,0,1-.36.256V2.559A6.159,6.159,0,0,0,16,2.057V2.065a5.293,5.293,0,0,1-1.113,1.277l-0.512.407a9.4,9.4,0,0,1-.152,2.108,9.176,9.176,0,0,1-6.43,7.258,9.822,9.822,0,0,1-4.645.192,11.986,11.986,0,0,1-1.93-.631A7.692,7.692,0,0,1,.288,12.2L0,12.02a5.351,5.351,0,0,0,1.049.04c0.323-.052.639-0.038,0.937-0.1a6.708,6.708,0,0,0,1.97-.71,3.657,3.657,0,0,0,.889-0.582,2.8,2.8,0,0,1-.977-0.176,3.3,3.3,0,0,1-2.082-2.1,3.258,3.258,0,0,0,1.466-.064,2.4,2.4,0,0,1-1.073-.432A3.158,3.158,0,0,1,.633,5.082l0.336,0.16a3.606,3.606,0,0,0,.689.192,0.982,0.982,0,0,0,.448.039H2.09c-0.165-.192-0.435-0.32-0.6-0.526A3.355,3.355,0,0,1,.753,1.969a3.818,3.818,0,0,1,.352-0.854L1.121,1.123a2.016,2.016,0,0,0,.3.343,6,6,0,0,0,.977.934A9.669,9.669,0,0,0,6.406,4.34a6.313,6.313,0,0,0,1.473.191A3.05,3.05,0,0,1,7.9,2.991,3.236,3.236,0,0,1,9.754.787,3.965,3.965,0,0,1,10.482.564Z"/>
</svg>
