<svg xmlns="http://www.w3.org/2000/svg" width="32" height="24" viewBox="0 0 32 24">
  <defs>
    <style>
      .cls-1 {
        fill: #fff;
        fill-rule: evenodd;
      }
    </style>
  </defs>
  <path id="USERS" class="cls-1" d="M31.95,22.5a0.01,0.01,0,0,0,0,0,0.993,0.993,0,0,1-1,.992H23.543a1.236,1.236,0,0,0,.972-1.205s0,0,0,0h0s0-4.5-3.3-6.142a5.951,5.951,0,0,0-2.205-.732l0.019-1.95a3.663,3.663,0,0,1-1.01-2.431c-0.482.139-.642-0.564-0.67-1.012-0.026-.431-0.279-1.783.309-1.661a11.91,11.91,0,0,1-.164-2.147,3.893,3.893,0,0,1,3.861-3.208C24,3.122,25.051,4.7,25.2,6.214a11.994,11.994,0,0,1-.172,2.146c0.589-.12.333,1.228,0.3,1.661-0.026.448-.189,1.149-0.67,1.01a3.643,3.643,0,0,1-1.011,2.426L23.667,15.4s0.487,0.278,2.545,1.127,1.412,0.215,3.089,1.045C31.95,18.89,31.95,22.5,31.95,22.5h0ZM17.023,15.841c2.262,0.935,1.553.235,3.4,1.149,2.912,1.444,2.912,5.416,2.912,5.416h0a0.009,0.009,0,0,1,0,0,1.092,1.092,0,0,1-1.094,1.09H1.094A1.091,1.091,0,0,1,0,22.408a0.015,0.015,0,0,1,0,0H0s0-3.972,2.912-5.417c1.842-.913,1.133-0.172,3.4-1.106a25.956,25.956,0,0,0,2.8-1.26L9.125,12.47A4.025,4.025,0,0,1,8.015,9.8c-0.53.153-.705-0.621-0.736-1.113-0.028-.474-0.307-1.96.34-1.825A13.084,13.084,0,0,1,7.438,4.5,4.282,4.282,0,0,1,11.682.975C14.593,1.1,15.747,2.838,15.908,4.5a13.193,13.193,0,0,1-.189,2.359c0.647-.132.366,1.349,0.334,1.825-0.029.492-.208,1.262-0.736,1.11a4,4,0,0,1-1.111,2.666l0.02,2.142S14.761,14.906,17.023,15.841Z"/>
</svg>
